<mxfile host="app.diagrams.net" modified="2024-01-23T02:17:41.829Z" agent="Mozilla/5.0 (Windows NT 10.0; Win64; x64; rv:121.0) Gecko/20100101 Firefox/121.0" etag="mXGM2jdBmZeXHiM7lkWC" version="22.1.21" type="device">
  <diagram name="Page-1" id="m4HbVYhpBsFxY-E0fdw8">
    <mxGraphModel dx="1354" dy="610" grid="1" gridSize="10" guides="1" tooltips="1" connect="1" arrows="1" fold="1" page="1" pageScale="1" pageWidth="850" pageHeight="1100" math="0" shadow="0">
      <root>
        <mxCell id="0" />
        <mxCell id="1" parent="0" />
        <mxCell id="GqpDL0QlQFK2nMcuySfG-4" value="" style="edgeStyle=orthogonalEdgeStyle;rounded=0;orthogonalLoop=1;jettySize=auto;html=1;startArrow=classic;startFill=1;" parent="1" source="GqpDL0QlQFK2nMcuySfG-1" target="GqpDL0QlQFK2nMcuySfG-3" edge="1">
          <mxGeometry relative="1" as="geometry" />
        </mxCell>
        <mxCell id="GqpDL0QlQFK2nMcuySfG-1" value="&lt;div&gt;Stack Edge Connector&lt;/div&gt;" style="whiteSpace=wrap;html=1;fontStyle=1" parent="1" vertex="1">
          <mxGeometry x="120" y="200" width="120" height="60" as="geometry" />
        </mxCell>
        <mxCell id="CMK4vEeK8Xor_b6nnSUB-14" style="edgeStyle=orthogonalEdgeStyle;rounded=0;orthogonalLoop=1;jettySize=auto;html=1;entryX=0.5;entryY=1;entryDx=0;entryDy=0;" parent="1" source="GqpDL0QlQFK2nMcuySfG-2" target="CMK4vEeK8Xor_b6nnSUB-11" edge="1">
          <mxGeometry relative="1" as="geometry" />
        </mxCell>
        <mxCell id="CMK4vEeK8Xor_b6nnSUB-15" style="edgeStyle=orthogonalEdgeStyle;rounded=0;orthogonalLoop=1;jettySize=auto;html=1;exitX=0.75;exitY=0;exitDx=0;exitDy=0;entryX=0.25;entryY=1;entryDx=0;entryDy=0;" parent="1" source="GqpDL0QlQFK2nMcuySfG-2" target="CMK4vEeK8Xor_b6nnSUB-8" edge="1">
          <mxGeometry relative="1" as="geometry">
            <Array as="points">
              <mxPoint x="530" y="80" />
              <mxPoint x="630" y="80" />
            </Array>
          </mxGeometry>
        </mxCell>
        <mxCell id="GqpDL0QlQFK2nMcuySfG-2" value="Processor&lt;br&gt;(STM32F103CBT6)" style="whiteSpace=wrap;html=1;" parent="1" vertex="1">
          <mxGeometry x="440" y="200" width="120" height="60" as="geometry" />
        </mxCell>
        <mxCell id="GqpDL0QlQFK2nMcuySfG-6" value="" style="edgeStyle=orthogonalEdgeStyle;rounded=0;orthogonalLoop=1;jettySize=auto;html=1;startArrow=classic;startFill=1;" parent="1" source="GqpDL0QlQFK2nMcuySfG-3" target="GqpDL0QlQFK2nMcuySfG-2" edge="1">
          <mxGeometry relative="1" as="geometry" />
        </mxCell>
        <mxCell id="GqpDL0QlQFK2nMcuySfG-3" value="CAN Interface (Isolated)" style="whiteSpace=wrap;html=1;" parent="1" vertex="1">
          <mxGeometry x="280" y="200" width="120" height="60" as="geometry" />
        </mxCell>
        <mxCell id="74W6D5vzAUNJO_zQE1V--2" value="" style="edgeStyle=orthogonalEdgeStyle;rounded=0;orthogonalLoop=1;jettySize=auto;html=1;" parent="1" target="74W6D5vzAUNJO_zQE1V--1" edge="1">
          <mxGeometry relative="1" as="geometry">
            <mxPoint x="440" y="430" as="sourcePoint" />
          </mxGeometry>
        </mxCell>
        <mxCell id="74W6D5vzAUNJO_zQE1V--15" style="edgeStyle=orthogonalEdgeStyle;rounded=0;orthogonalLoop=1;jettySize=auto;html=1;entryX=0.89;entryY=-0.012;entryDx=0;entryDy=0;entryPerimeter=0;" parent="1" source="GqpDL0QlQFK2nMcuySfG-20" target="GqpDL0QlQFK2nMcuySfG-2" edge="1">
          <mxGeometry relative="1" as="geometry" />
        </mxCell>
        <mxCell id="GqpDL0QlQFK2nMcuySfG-20" value="Crystal Oscillator" style="whiteSpace=wrap;html=1;" parent="1" vertex="1">
          <mxGeometry x="600" y="100" width="120" height="60" as="geometry" />
        </mxCell>
        <mxCell id="CMK4vEeK8Xor_b6nnSUB-5" value="" style="edgeStyle=orthogonalEdgeStyle;rounded=0;orthogonalLoop=1;jettySize=auto;html=1;" parent="1" source="CMK4vEeK8Xor_b6nnSUB-3" edge="1">
          <mxGeometry relative="1" as="geometry">
            <mxPoint x="180" y="400" as="targetPoint" />
          </mxGeometry>
        </mxCell>
        <mxCell id="CMK4vEeK8Xor_b6nnSUB-9" style="edgeStyle=orthogonalEdgeStyle;rounded=0;orthogonalLoop=1;jettySize=auto;html=1;exitX=0.75;exitY=1;exitDx=0;exitDy=0;entryX=0.25;entryY=0;entryDx=0;entryDy=0;" parent="1" source="CMK4vEeK8Xor_b6nnSUB-7" target="GqpDL0QlQFK2nMcuySfG-2" edge="1">
          <mxGeometry relative="1" as="geometry">
            <Array as="points">
              <mxPoint x="370" y="80" />
              <mxPoint x="470" y="80" />
            </Array>
          </mxGeometry>
        </mxCell>
        <mxCell id="CMK4vEeK8Xor_b6nnSUB-7" value="SAM-M10Q GPS" style="whiteSpace=wrap;html=1;" parent="1" vertex="1">
          <mxGeometry x="280" width="120" height="60" as="geometry" />
        </mxCell>
        <mxCell id="CMK4vEeK8Xor_b6nnSUB-8" value="Flash Module" style="whiteSpace=wrap;html=1;" parent="1" vertex="1">
          <mxGeometry x="600" width="120" height="60" as="geometry" />
        </mxCell>
        <mxCell id="CMK4vEeK8Xor_b6nnSUB-11" value="Buzzer Circuit" style="whiteSpace=wrap;html=1;" parent="1" vertex="1">
          <mxGeometry x="440" width="120" height="60" as="geometry" />
        </mxCell>
        <mxCell id="S1o1Ua7DyFf2WRcnP2ac-1" style="edgeStyle=orthogonalEdgeStyle;rounded=0;orthogonalLoop=1;jettySize=auto;html=1;entryX=0;entryY=0.5;entryDx=0;entryDy=0;exitX=0.5;exitY=1;exitDx=0;exitDy=0;" edge="1" parent="1" target="S1o1Ua7DyFf2WRcnP2ac-14" source="GqpDL0QlQFK2nMcuySfG-1">
          <mxGeometry relative="1" as="geometry">
            <mxPoint x="180" y="260" as="sourcePoint" />
            <Array as="points">
              <mxPoint x="180" y="430" />
            </Array>
          </mxGeometry>
        </mxCell>
        <mxCell id="S1o1Ua7DyFf2WRcnP2ac-2" style="edgeStyle=orthogonalEdgeStyle;rounded=0;orthogonalLoop=1;jettySize=auto;html=1;exitX=1;exitY=0.25;exitDx=0;exitDy=0;entryX=0;entryY=0.25;entryDx=0;entryDy=0;" edge="1" parent="1" target="S1o1Ua7DyFf2WRcnP2ac-15" source="GqpDL0QlQFK2nMcuySfG-2">
          <mxGeometry relative="1" as="geometry">
            <mxPoint x="560" y="215" as="sourcePoint" />
          </mxGeometry>
        </mxCell>
        <mxCell id="S1o1Ua7DyFf2WRcnP2ac-3" style="edgeStyle=orthogonalEdgeStyle;rounded=0;orthogonalLoop=1;jettySize=auto;html=1;exitX=0.5;exitY=0;exitDx=0;exitDy=0;entryX=0.5;entryY=1;entryDx=0;entryDy=0;" edge="1" parent="1" source="S1o1Ua7DyFf2WRcnP2ac-4" target="GqpDL0QlQFK2nMcuySfG-2">
          <mxGeometry relative="1" as="geometry">
            <mxPoint x="500" y="260" as="targetPoint" />
            <Array as="points">
              <mxPoint x="500" y="380" />
              <mxPoint x="570" y="380" />
              <mxPoint x="570" y="290" />
              <mxPoint x="500" y="290" />
            </Array>
          </mxGeometry>
        </mxCell>
        <mxCell id="S1o1Ua7DyFf2WRcnP2ac-4" value="&lt;div&gt;Current Monitoring IC&lt;br&gt;&lt;/div&gt;" style="whiteSpace=wrap;html=1;" vertex="1" parent="1">
          <mxGeometry x="440" y="400" width="120" height="60" as="geometry" />
        </mxCell>
        <mxCell id="S1o1Ua7DyFf2WRcnP2ac-5" value="" style="edgeStyle=orthogonalEdgeStyle;rounded=0;orthogonalLoop=1;jettySize=auto;html=1;" edge="1" parent="1" target="S1o1Ua7DyFf2WRcnP2ac-4">
          <mxGeometry relative="1" as="geometry">
            <mxPoint x="400" y="430" as="sourcePoint" />
          </mxGeometry>
        </mxCell>
        <mxCell id="S1o1Ua7DyFf2WRcnP2ac-6" value="" style="edgeStyle=orthogonalEdgeStyle;rounded=0;orthogonalLoop=1;jettySize=auto;html=1;" edge="1" parent="1" source="S1o1Ua7DyFf2WRcnP2ac-8" target="S1o1Ua7DyFf2WRcnP2ac-13">
          <mxGeometry relative="1" as="geometry" />
        </mxCell>
        <mxCell id="S1o1Ua7DyFf2WRcnP2ac-7" style="edgeStyle=orthogonalEdgeStyle;rounded=0;orthogonalLoop=1;jettySize=auto;html=1;exitX=0.25;exitY=0;exitDx=0;exitDy=0;entryX=0.25;entryY=1;entryDx=0;entryDy=0;startArrow=classic;startFill=1;" edge="1" parent="1" source="S1o1Ua7DyFf2WRcnP2ac-8" target="GqpDL0QlQFK2nMcuySfG-2">
          <mxGeometry relative="1" as="geometry">
            <mxPoint x="470" y="260" as="targetPoint" />
          </mxGeometry>
        </mxCell>
        <mxCell id="S1o1Ua7DyFf2WRcnP2ac-8" value="USB Connector" style="whiteSpace=wrap;html=1;fontStyle=1" vertex="1" parent="1">
          <mxGeometry x="440" y="300" width="120" height="60" as="geometry" />
        </mxCell>
        <mxCell id="S1o1Ua7DyFf2WRcnP2ac-9" style="edgeStyle=orthogonalEdgeStyle;rounded=0;orthogonalLoop=1;jettySize=auto;html=1;entryX=0.75;entryY=1;entryDx=0;entryDy=0;" edge="1" parent="1" source="S1o1Ua7DyFf2WRcnP2ac-11" target="GqpDL0QlQFK2nMcuySfG-2">
          <mxGeometry relative="1" as="geometry">
            <mxPoint x="530" y="260" as="targetPoint" />
            <Array as="points">
              <mxPoint x="580" y="430" />
              <mxPoint x="580" y="280" />
              <mxPoint x="530" y="280" />
            </Array>
          </mxGeometry>
        </mxCell>
        <mxCell id="S1o1Ua7DyFf2WRcnP2ac-10" style="edgeStyle=orthogonalEdgeStyle;rounded=0;orthogonalLoop=1;jettySize=auto;html=1;entryX=0.5;entryY=1;entryDx=0;entryDy=0;" edge="1" parent="1" source="S1o1Ua7DyFf2WRcnP2ac-11" target="S1o1Ua7DyFf2WRcnP2ac-14">
          <mxGeometry relative="1" as="geometry">
            <Array as="points">
              <mxPoint x="660" y="480" />
              <mxPoint x="340" y="480" />
            </Array>
          </mxGeometry>
        </mxCell>
        <mxCell id="S1o1Ua7DyFf2WRcnP2ac-11" value="&lt;div&gt;SWD Header&lt;/div&gt;&lt;div&gt;(Programming)&lt;/div&gt;" style="whiteSpace=wrap;html=1;fontStyle=1" vertex="1" parent="1">
          <mxGeometry x="600" y="400" width="120" height="60" as="geometry" />
        </mxCell>
        <mxCell id="S1o1Ua7DyFf2WRcnP2ac-12" value="" style="edgeStyle=orthogonalEdgeStyle;rounded=0;orthogonalLoop=1;jettySize=auto;html=1;" edge="1" parent="1" source="S1o1Ua7DyFf2WRcnP2ac-13" target="S1o1Ua7DyFf2WRcnP2ac-14">
          <mxGeometry relative="1" as="geometry" />
        </mxCell>
        <mxCell id="S1o1Ua7DyFf2WRcnP2ac-13" value="Linear Regulator" style="whiteSpace=wrap;html=1;" vertex="1" parent="1">
          <mxGeometry x="280" y="300" width="120" height="60" as="geometry" />
        </mxCell>
        <mxCell id="S1o1Ua7DyFf2WRcnP2ac-14" value="&lt;div&gt;3x Ideal Diodes&lt;/div&gt;&lt;div&gt;(Power Mux)&lt;/div&gt;" style="whiteSpace=wrap;html=1;" vertex="1" parent="1">
          <mxGeometry x="280" y="400" width="120" height="60" as="geometry" />
        </mxCell>
        <mxCell id="S1o1Ua7DyFf2WRcnP2ac-15" value="RGB Indicator LED(s)" style="whiteSpace=wrap;html=1;" vertex="1" parent="1">
          <mxGeometry x="600" y="200" width="120" height="60" as="geometry" />
        </mxCell>
        <mxCell id="S1o1Ua7DyFf2WRcnP2ac-16" style="edgeStyle=orthogonalEdgeStyle;rounded=0;orthogonalLoop=1;jettySize=auto;html=1;exitX=0.5;exitY=0;exitDx=0;exitDy=0;entryX=1;entryY=0.75;entryDx=0;entryDy=0;" edge="1" parent="1" source="S1o1Ua7DyFf2WRcnP2ac-17" target="GqpDL0QlQFK2nMcuySfG-2">
          <mxGeometry relative="1" as="geometry">
            <mxPoint x="560" y="245" as="targetPoint" />
            <Array as="points">
              <mxPoint x="660" y="270" />
              <mxPoint x="580" y="270" />
              <mxPoint x="580" y="245" />
            </Array>
          </mxGeometry>
        </mxCell>
        <mxCell id="S1o1Ua7DyFf2WRcnP2ac-17" value="&lt;div&gt;BootMode &amp;amp; Reset&lt;/div&gt;&lt;div&gt;Buttons&lt;br&gt;&lt;/div&gt;" style="whiteSpace=wrap;html=1;" vertex="1" parent="1">
          <mxGeometry x="600" y="300" width="120" height="60" as="geometry" />
        </mxCell>
        <mxCell id="S1o1Ua7DyFf2WRcnP2ac-19" value="" style="edgeStyle=orthogonalEdgeStyle;rounded=0;orthogonalLoop=1;jettySize=auto;html=1;" edge="1" parent="1" source="S1o1Ua7DyFf2WRcnP2ac-18" target="CMK4vEeK8Xor_b6nnSUB-7">
          <mxGeometry relative="1" as="geometry" />
        </mxCell>
        <mxCell id="S1o1Ua7DyFf2WRcnP2ac-18" value="&lt;div&gt;GPS Backup&lt;/div&gt;&lt;div&gt;Power Source&lt;br&gt;&lt;/div&gt;" style="whiteSpace=wrap;html=1;" vertex="1" parent="1">
          <mxGeometry x="280" y="100" width="120" height="60" as="geometry" />
        </mxCell>
      </root>
    </mxGraphModel>
  </diagram>
</mxfile>
